<svg class="logo" xmlns="http://www.w3.org/2000/svg" viewBox="0 0 438.36 107.9"><title>logo-post</title><path d="M20.15 66.73v39H0V2.19h38.7c20.44 0 34 13.58 34 32.27s-13.58 32.27-34 32.27zm16.06-17.38c10.07 0 16.21-5.84 16.21-14.75 0-9.2-6.13-14.89-16.21-14.89H20.29v29.64zM164.69 0C192.87 0 218 20.59 218 54c0 33.29-25.12 53.88-53.3 53.88-28 0-53.15-20.59-53.15-53.88-.01-33.41 25.11-54 53.14-54zm0 88.34c16.06 0 32.41-11.1 32.41-34.46s-16.35-34.46-32.41-34.46c-15.91 0-32.27 11.1-32.27 34.46s16.36 34.46 32.27 34.46zm152.98-55.92c-1-5.7-5.7-14.6-18.84-14.6-9.78 0-16.21 6.28-16.21 13.14 0 5.69 3.65 10.22 11.24 11.68l14.46 2.78c18.83 3.65 28.91 15.91 28.91 30.52 0 15.92-13.28 32-37.38 32-27.45 0-39.56-17.67-41.17-32.41l18.69-5c.88 10.22 8 19.42 22.63 19.42 10.8 0 16.79-5.4 16.79-12.7 0-6-4.53-10.66-12.56-12.27l-14.46-2.92c-16.49-3.36-27.15-14-27.15-29.64C262.62 14 279.11 0 298.68 0c25.12 0 34.75 15.18 37.08 26.87zm100.54-11.1v84.4h-20.29v-84.4h-20.15V2.19h60.6v19.13z" fill="#231f20"/></svg>