<svg class="logo" xmlns="http://www.w3.org/2000/svg" viewBox="0 0 669.86 107.9"><title>logo-venice</title><path d="M76.08,2.19H97.39L59,105.71H38.26L0,2.19H22.05l27,77Z" style="fill:#231f20"/><path d="M145.42,105.71V2.19h56.37v19H165.57V44.83h32v18h-32V86.73H206v19Z" style="fill:#231f20"/><path d="M321.21,105.71l-47-73.45v73.45H254V2.19h25.12l43.07,68.48V2.19h20.15V105.71Z" style="fill:#231f20"/><path d="M462.39,54c0-33,25-54,52.71-54,28.62,0,43.37,17.52,47.46,34.31l-19,6c-2.48-9.93-10.52-20.88-28.48-20.88-15.47,0-31.83,11.1-31.83,34.61,0,22,15.48,34.17,32.13,34.17,17.67,0,26.28-11.53,29.05-21.17l18.85,5.7c-3.95,15.91-18.85,35.19-47.9,35.19S462.39,87,462.39,54Z" style="fill:#231f20"/><path d="M609.27,105.71V2.19h56.37v19H629.41V44.83h32v18h-32V86.73h40.46v19Z" style="fill:#231f20"/><rect x="395.23" y="37.49" width="20.43" height="68.22" style="fill:#231f20"/><rect x="395.23" y="2.19" width="20.43" height="20.43" style="fill:#231f20"/></svg>
